STARTFONT 2.3
FONT -FontForge-Permanent Marker-Book-R-Normal--16-160-72-72-P-91-ISO10646-1
SIZE 16 72 72  4
FONTBOUNDINGBOX 25 23 -5 -5
COMMENT "Generated by fontforge, http://fontforge.sourceforge.net"
COMMENT "Copyright (c) 2010 by Font Diner, Inc. All rights reserved."
STARTPROPERTIES 40
FOUNDRY "FontForge"
FAMILY_NAME "Permanent Marker"
WEIGHT_NAME "Book"
SLANT "R"
SETWIDTH_NAME "Normal"
ADD_STYLE_NAME ""
PIXEL_SIZE 16
POINT_SIZE 160
RESOLUTION_X 72
RESOLUTION_Y 72
SPACING "P"
AVERAGE_WIDTH 91
CHARSET_REGISTRY "ISO10646"
CHARSET_ENCODING "1"
FONTNAME_REGISTRY ""
CHARSET_COLLECTIONS "ISO10646-1"
BITS_PER_PIXEL 4
FONT_NAME "PermanentMarker-Regular"
FACE_NAME "Permanent Marker Regular"
COPYRIGHT "Copyright (c) 2010 by Font Diner, Inc. All rights reserved."
FONT_VERSION "1.001"
FONT_ASCENT 13
FONT_DESCENT 3
UNDERLINE_POSITION -2
UNDERLINE_THICKNESS 1
X_HEIGHT 9
CAP_HEIGHT 11
RAW_ASCENT 799
RAW_DESCENT 200
NORM_SPACE 6
RELATIVE_WEIGHT 40
RELATIVE_SETWIDTH 50
SUPERSCRIPT_X 0
SUPERSCRIPT_Y 7
SUPERSCRIPT_SIZE 10
SUBSCRIPT_X 0
SUBSCRIPT_Y 2
SUBSCRIPT_SIZE 10
AVG_LOWERCASE_WIDTH 89
AVG_UPPERCASE_WIDTH 108
ENDPROPERTIES
CHARS 230
STARTCHAR space
ENCODING 32
SWIDTH 370 0
DWIDTH 6 0
BBX 1 1 0 0
BITMAP
00
ENDCHAR
STARTCHAR exclam
ENCODING 33
SWIDTH 260 0
DWIDTH 4 0
BBX 5 13 0 -1
BITMAP
004A00
00CF30
01FF40
03FF10
07FD00
0AFA00
0CF700
0DF300
024000
251000
CFC000
AF8000
150000
ENDCHAR
STARTCHAR quotedbl
ENCODING 34
SWIDTH 492 0
DWIDTH 8 0
BBX 8 8 1 4
BITMAP
06A30A81
0CFC1FF6
2FF86FF2
5FF2BFB0
9FD0EF60
AFA3FF30
9F63FE00
19109600
ENDCHAR
STARTCHAR numbersign
ENCODING 35
SWIDTH 703 0
DWIDTH 11 0
BBX 12 12 0 0
BITMAP
000023003200
00009E10DB00
0000EF43FF10
0147FF9BFE40
0AFFFFFFFFF6
07CFF99FE640
004FE07FB000
4BDFFFFFFC20
7FFFEEFFC910
19FE19FB0000
0CF90FF60000
08E30BD10000
ENDCHAR
STARTCHAR dollar
ENCODING 36
SWIDTH 493 0
DWIDTH 8 0
BBX 9 13 0 -1
BITMAP
0000070000
00004F6000
00009FC810
039EFFFF90
4FFFA77750
7FFFC40000
068AED1000
00003F7000
0027EF4000
0EFFF70000
0AFF700000
00EF200000
0023000000
ENDCHAR
STARTCHAR percent
ENCODING 37
SWIDTH 643 0
DWIDTH 10 0
BBX 11 12 0 0
BITMAP
000310000110
006F90002D60
07FFD002DF30
1FDAF51EF800
2FFFF5DF7000
06974DF60000
0002DF621000
003DF65F8000
03EF56FFC000
0DF51EDAF400
4FD03FFFF400
3E6008A83000
ENDCHAR
STARTCHAR ampersand
ENCODING 38
SWIDTH 599 0
DWIDTH 10 0
BBX 10 9 0 0
BITMAP
00001A2000
00208FA000
1CFADFA000
AFDFFFD940
CFEFFFFFF3
29BEFF6520
000AFD0000
000BF80000
0001500000
ENDCHAR
STARTCHAR quotesingle
ENCODING 39
SWIDTH 265 0
DWIDTH 4 0
BBX 4 8 1 4
BITMAP
06A3
0CFC
2FF8
5FF2
9FD0
AFA0
9F60
1910
ENDCHAR
STARTCHAR parenleft
ENCODING 40
SWIDTH 361 0
DWIDTH 6 0
BBX 8 17 0 -3
BITMAP
00000053
000008F7
0000AFF6
000AFFD1
006FFA00
01EFC000
08FF5000
0BFB0000
0EF60000
4FF20000
7FF00000
7FF00000
7FF10000
4FF40000
1FF70000
06F60000
00870000
ENDCHAR
STARTCHAR parenright
ENCODING 41
SWIDTH 361 0
DWIDTH 6 0
BBX 8 17 -2 -3
BITMAP
00006100
0000DB00
0000DF70
0000CFD0
00008FF1
00006FF2
00006FF1
00007FF0
0000AFA0
0001FF70
0007FF40
001EFD00
00BFF400
2BFF9000
AFFA0000
CF800000
A7000000
ENDCHAR
STARTCHAR asterisk
ENCODING 42
SWIDTH 673 0
DWIDTH 11 0
BBX 11 9 1 3
BITMAP
001820173000
009FC3EF2000
006FFFF80000
489EFFFDC600
BFFFFFFFEC20
388FFFF60000
00AFC9FB0000
03FF41C90000
001100110000
ENDCHAR
STARTCHAR plus
ENCODING 43
SWIDTH 579 0
DWIDTH 9 0
BBX 9 9 0 0
BITMAP
0000420000
0003FB0000
0008FD0000
124DFE5200
BFFFFFFE40
7FEFFCA820
016FF20000
008FD00000
003A400000
ENDCHAR
STARTCHAR comma
ENCODING 44
SWIDTH 204 0
DWIDTH 3 0
BBX 4 6 -2 -3
BITMAP
0020
07FA
0AFE
1FF9
9FF2
2A40
ENDCHAR
STARTCHAR hyphen
ENCODING 45
SWIDTH 609 0
DWIDTH 10 0
BBX 9 4 0 2
BITMAP
0245665300
8FFFFFFF50
5FECBBA830
0100000000
ENDCHAR
STARTCHAR period
ENCODING 46
SWIDTH 228 0
DWIDTH 4 0
BBX 4 4 -1 -1
BITMAP
0530
4FF5
3FF1
0430
ENDCHAR
STARTCHAR slash
ENCODING 47
SWIDTH 401 0
DWIDTH 6 0
BBX 9 13 -1 -1
BITMAP
0000000220
0000002D80
000000CF80
000009FE20
00005FE300
0003FF4000
001DF80000
01CFA00000
0AFC100000
4FE2000000
8FA0000000
6F70000000
0200000000
ENDCHAR
STARTCHAR zero
ENCODING 48
SWIDTH 686 0
DWIDTH 11 0
BBX 11 14 0 -1
BITMAP
000000100000
000003CB0000
00003EFF8000
0004EFFF7000
003EFFFFA000
01EFFA8FF200
09FFA00DF900
2FFC1006FE00
8FF40004FF30
BFE0004DFF50
BFE99CFFFF10
6FFFFFFFE300
0AFFFFE72000
003452000000
ENDCHAR
STARTCHAR one
ENCODING 49
SWIDTH 322 0
DWIDTH 5 0
BBX 5 13 0 -1
BITMAP
047000
09F800
08FF10
04FF40
03FF50
04FF50
08FF30
0DFE00
3FFA00
7FF600
9FF000
5FA000
010000
ENDCHAR
STARTCHAR two
ENCODING 50
SWIDTH 650 0
DWIDTH 10 0
BBX 11 12 1 0
BITMAP
258986200000
CFFFFFF40000
CFFFFFFE3000
59854DFF8000
0001CFFF3000
002DFFF50000
03EFFD300000
2EFFC1000000
CFFA1268B900
FFFFFFFFFF30
EFFFFFFFFA10
6DFEB9630000
ENDCHAR
STARTCHAR three
ENCODING 51
SWIDTH 561 0
DWIDTH 9 0
BBX 10 12 -1 0
BITMAP
0000356650
07CFFFFFF4
1FFFFFFFFB
2FFFFFFFF6
033DFFFC30
002FFFF500
001EFFFF60
00016BFFE1
000001BFF4
03DCDFFFE2
08FFFFFD50
06DDC95000
ENDCHAR
STARTCHAR four
ENCODING 52
SWIDTH 582 0
DWIDTH 9 0
BBX 10 13 0 -1
BITMAP
000002C100
040005F700
2F7008FA00
2FE009F800
0FF51BFD90
0CFFFFFFF2
08FFFFFE80
0079EFA000
0000FF4000
0002FE0000
0002FF3000
0000DF8000
0000272000
ENDCHAR
STARTCHAR five
ENCODING 53
SWIDTH 580 0
DWIDTH 9 0
BBX 11 12 0 0
BITMAP
000050000000
005DFB678800
07FFFFFFFF40
1FFFFFFFFF60
3FFFEA742100
1EFFF7000000
05DFFF800000
0005BFF50000
00000CFB0000
2EDDEFFD0000
0DFFFFF60000
03ACCA500000
ENDCHAR
STARTCHAR six
ENCODING 54
SWIDTH 500 0
DWIDTH 8 0
BBX 9 13 -1 -1
BITMAP
0000176000
0001DFE000
0009FFF400
003FFC3000
009FE10000
01FF700000
07FF4BE800
0CFADFFF40
1FF9FFFF80
1FFDFFFF40
1FFFFFF600
09FFD93000
0022000000
ENDCHAR
STARTCHAR seven
ENCODING 55
SWIDTH 576 0
DWIDTH 9 0
BBX 10 12 0 0
BITMAP
1687520000
AFFFFFC000
CFFFFFF900
46568DFE00
000005FD00
00003AFE64
07DFFFFFFD
0EFFFFFEC6
07CEFF6000
001EFA0000
004FF20000
003EA00000
ENDCHAR
STARTCHAR eight
ENCODING 56
SWIDTH 537 0
DWIDTH 9 0
BBX 9 13 1 -1
BITMAP
0289703300
2DFFF6CD00
BFFFFBBF30
EF74EDEF50
EFA4AFFC00
8FFFFFB100
2FFFE50000
7FFFF10000
AF5CF60000
BFABFA0000
6FFFF80000
0AFFB10000
0012000000
ENDCHAR
STARTCHAR nine
ENCODING 57
SWIDTH 529 0
DWIDTH 8 0
BBX 9 13 0 -1
BITMAP
0001694000
005EFFE300
06FFFFFC00
1EFD67FF10
5FFFFFFF70
4FFFFFFE30
07CB8DF700
00000DF300
00002FE000
00005FC000
00007F9000
00007F4000
0000130000
ENDCHAR
STARTCHAR colon
ENCODING 58
SWIDTH 241 0
DWIDTH 4 0
BBX 5 8 -1 -1
BITMAP
04D900
07FF10
02E910
000000
053000
4FF500
3FF100
043000
ENDCHAR
STARTCHAR semicolon
ENCODING 59
SWIDTH 245 0
DWIDTH 4 0
BBX 6 10 -2 -3
BITMAP
003D91
006FF2
001EA1
000000
002000
00ED30
03FF60
09FF20
2FF800
079000
ENDCHAR
STARTCHAR less
ENCODING 60
SWIDTH 625 0
DWIDTH 10 0
BBX 10 8 0 0
BITMAP
0000000593
000005CFFC
005AEFFFA2
CFFFFD7200
BFFFB30000
07EFFFC400
0015BEFE20
0000004820
ENDCHAR
STARTCHAR equal
ENCODING 61
SWIDTH 586 0
DWIDTH 9 0
BBX 9 7 0 1
BITMAP
0001122000
1CEFFFFF80
3FFFEEDB70
0420000000
6ABDEFF800
CFFFFED700
4531100000
ENDCHAR
STARTCHAR greater
ENCODING 62
SWIDTH 634 0
DWIDTH 10 0
BBX 11 8 -1 0
BITMAP
019610000000
01CFFC710000
002AFFFF9100
000029FFFE10
0017CFFFFD10
18FFFEA51000
9FFD61000000
286000000000
ENDCHAR
STARTCHAR question
ENCODING 63
SWIDTH 556 0
DWIDTH 9 0
BBX 10 13 0 -1
BITMAP
005BBA8410
05FFFFFFF9
09FFFFFFFC
015213BFFB
000019FFF5
0004EFFE60
005FFF8100
00CFB20000
0057000000
0540000000
1FF5000000
1EF5000000
0430000000
ENDCHAR
STARTCHAR at
ENCODING 64
SWIDTH 732 0
DWIDTH 12 0
BBX 13 13 -1 -1
BITMAP
0000003BB40000
0000008FFF5000
000007FFBFD100
0001BFD406F900
003DFC26B7CF20
02EFB4CFF76F50
0BFC5FEBF46F50
1FF3CF88F5AE20
0FB09FFFFFE400
0DB40799651000
05FFB8878A2000
002AFFFFFFA000
00001245540000
ENDCHAR
STARTCHAR A
ENCODING 65
SWIDTH 702 0
DWIDTH 11 0
BBX 13 13 -1 -1
BITMAP
00000016200000
000000AFF30000
00006CFFF70000
0002FFFFF90000
000AFFEEFC0000
002FFF3BFF1000
008FF808FFD700
01EFFEFFFFFD10
08FFCFFFFFE100
0EFD1884BFF000
3FF80007FFD000
0CD30002EE3000
00000000100000
ENDCHAR
STARTCHAR B
ENCODING 66
SWIDTH 686 0
DWIDTH 11 0
BBX 12 13 -1 -1
BITMAP
0002589A8200
07DFFFFFFE40
5FFFFEBAFFD0
1DFEE22CFFC0
0168FDEFFE30
000CFFFFF500
001FFFFFFC20
005FFA413ED1
00AFF202AFF6
00EFC5AFFFF4
03FFFFFFFE60
00CFFFFB6100
001324200000
ENDCHAR
STARTCHAR C
ENCODING 67
SWIDTH 611 0
DWIDTH 10 0
BBX 10 12 0 0
BITMAP
0000002710
000018FFD2
0007EFFFF6
01BFFFFE90
1CFFFD5000
9FFF810000
FFE4000000
EF70000000
CF91000000
6FFFDCBB40
09FFFFFFE0
0049CEEE60
ENDCHAR
STARTCHAR D
ENCODING 68
SWIDTH 588 0
DWIDTH 9 0
BBX 10 13 0 -1
BITMAP
0630000000
0EFC610000
0DFFFD3000
1FE8EFF600
0DF105EF40
0CF3003ED0
0DF3002EF2
2FF217EFE1
6FF8DFFF50
AFFFFFD400
AFFFD70000
5FB5000000
0100000000
ENDCHAR
STARTCHAR E
ENCODING 69
SWIDTH 626 0
DWIDTH 10 0
BBX 11 13 0 -1
BITMAP
000000357400
0048CFFFFF50
0BFFFFFFFC10
0BFFFEA52000
06FF82320000
06FFFFFD3000
0DFFFFFF6000
5FFC99820000
CFF200022000
CFEAACDFD200
9FFFFFFFF400
2CFFFED93000
001100000000
ENDCHAR
STARTCHAR F
ENCODING 70
SWIDTH 575 0
DWIDTH 9 0
BBX 13 13 -1 -1
BITMAP
000000268AA300
00038DFFFFFE30
00DFFFFFECA920
00EFFF72000000
004EFD00000000
001EF901200000
1DEFFEEFF70000
3FFFFFFFF60000
0AFFDA75200000
07FE1000000000
09FA0000000000
04F80000000000
00100000000000
ENDCHAR
STARTCHAR G
ENCODING 71
SWIDTH 789 0
DWIDTH 13 0
BBX 14 12 0 0
BITMAP
00000005500000
000002AFFA0000
00007EFFFE0000
000AFFFF920000
00AFFFB2000000
09FFF701AB3000
4FFF5003FFF910
CFF70000CFFFC1
DFA00248DFFFF3
BFECCFFFFFFE60
5FFFFFFFFC7200
06DFEB95100000
ENDCHAR
STARTCHAR H
ENCODING 72
SWIDTH 695 0
DWIDTH 11 0
BBX 12 13 -1 -1
BITMAP
000200000460
001E30000CD0
006FD1000DF7
008FF4002FFB
00AFF2002FFC
00CFF0005FFA
00EFD47BFFF7
05FFFFFFFFF4
09FFFFFEFFD0
0DFFF925FF80
1FFF6005FF80
09FB0000BB10
002000000000
ENDCHAR
STARTCHAR I
ENCODING 73
SWIDTH 515 0
DWIDTH 8 0
BBX 12 13 -1 -1
BITMAP
000358899830
003FFFFFFFE3
001EFFFFCB81
00023AFC0000
00000DF80000
00003FF40000
00008FE00000
0000EFA00000
0005FF400000
146DFFB50000
7FFFFFFF1000
3FFCAA850000
020000000000
ENDCHAR
STARTCHAR J
ENCODING 74
SWIDTH 668 0
DWIDTH 11 0
BBX 14 12 -1 0
BITMAP
00001234555420
008DFFFFFFFFF4
00EFFFFFFFFFFA
007EA75AFF4331
0000000BFD0000
0000000EF90000
0000003FF60000
0000008FF20000
010002EFC00000
2FE99EFF600000
3FFFFFFB000000
079CED81000000
ENDCHAR
STARTCHAR K
ENCODING 75
SWIDTH 776 0
DWIDTH 12 0
BBX 13 13 0 -1
BITMAP
00056000000000
001EFA0007C200
009FFB03CFFE00
00EFF46FFFF800
04FFDAFFFD4000
0AFFFFFF910000
1EFFFFF7000000
4FFFFFF6000000
7FFFEDFFC98810
BFFF41BFFFFFA0
9FF80006CFFE40
3FA00000023100
01000000000000
ENDCHAR
STARTCHAR L
ENCODING 76
SWIDTH 632 0
DWIDTH 10 0
BBX 10 13 0 -1
BITMAP
0028400000
007FF50000
00CFF50000
02FFD00000
07FF800000
0DFF200000
3FFC000000
8FF6000000
BFF2133300
CFFDFFFFC3
9FFFFFFFFA
2EFFC97784
0021000000
ENDCHAR
STARTCHAR M
ENCODING 77
SWIDTH 973 0
DWIDTH 16 0
BBX 16 13 0 -1
BITMAP
0000760000001400
0005FFA00000BF80
001EFFF40009FFF3
008FFFF501AFFFF4
01EFFFF85DFFFFF1
07FFFFFFFFFFFFF0
0DFFDFFFFFE6EFC0
5FFD2DFFF913FFA0
BFF901551006FF80
DFF100000008FF40
CFA000000007FD00
7F3000000001A300
0200000000000000
ENDCHAR
STARTCHAR N
ENCODING 78
SWIDTH 684 0
DWIDTH 11 0
BBX 13 12 -1 0
BITMAP
00002400017000
0000AF9005FB00
0002FFF30BFF40
0009FFF30EFE10
002FFFD02FF900
009FFFB05FF600
01EFFFB0CFF400
08FFFFC6FFF200
1EFFDFFFFFC000
1FFF39FFFF5000
0CFB01CFF90000
03E50018700000
ENDCHAR
STARTCHAR O
ENCODING 79
SWIDTH 744 0
DWIDTH 12 0
BBX 12 13 0 -1
BITMAP
0000004C4000
000007FFF300
0001AFFFF500
001BFFFFF700
00CFFEAAFE10
08FFD201EF70
3FFD20006FD0
8FF400004FF3
CFC00016EFF5
CFFAACFFFFE1
6FFFFFFFFC20
07EFFFD93000
000121000000
ENDCHAR
STARTCHAR P
ENCODING 80
SWIDTH 639 0
DWIDTH 10 0
BBX 11 13 0 -1
BITMAP
000039A96000
0007FFFFFB00
003FFFFFFF40
009FF979FF80
05FF8049FFA0
1EFFEFFFFF70
4FFFFFFFFA00
3FFFFFC82000
0EFC41000000
2FFA00000000
4FF800000000
2FF300000000
021000000000
ENDCHAR
STARTCHAR Q
ENCODING 81
SWIDTH 744 0
DWIDTH 12 0
BBX 12 13 0 -1
BITMAP
000001992000
000005FFF400
00002DFFFD00
0005EFFFFF70
007FFFB18FE1
09FFF7000DF6
6FFF57B60EF7
DFF505FFCFF6
FFA002CFFFE1
EF88CFFFFF30
BFFFFFFFFF40
1AFFEC72DF90
002100005E50
ENDCHAR
STARTCHAR R
ENCODING 82
SWIDTH 646 0
DWIDTH 10 0
BBX 11 13 0 -1
BITMAP
000018700000
0000BFFA1000
0008FFFF8000
049FFCEFE100
0AFFB07FF500
0DFF69EFF500
2FFFFFFFB000
5FFFFFB50000
8FFFF5000000
AFFFFFB63000
AFB6FFFFFF20
5E5028EFFF40
000000048700
ENDCHAR
STARTCHAR S
ENCODING 83
SWIDTH 576 0
DWIDTH 9 0
BBX 11 13 0 -1
BITMAP
00000379A700
0039DFFFFF60
2BFFFFFFFFD0
AFFFD7333420
CFFFFA200000
5EFFFFD00000
00246CF80000
000002FE0000
00004DFD0000
068CFFF50000
1FFFFF600000
0EFE92000000
012000000000
ENDCHAR
STARTCHAR T
ENCODING 84
SWIDTH 607 0
DWIDTH 10 0
BBX 13 13 0 -1
BITMAP
0000164689A500
BCDEFFFFFFFF40
DFFFFFFFFFEC30
6DCBEFF4200000
0001FFB0000000
0008FF50000000
000DFD00000000
004FF600000000
008FE100000000
00BFA000000000
008FA000000000
003EF300000000
00013000000000
ENDCHAR
STARTCHAR U
ENCODING 85
SWIDTH 695 0
DWIDTH 11 0
BBX 12 12 0 0
BITMAP
000000000430
002000000AE0
09D200000FF3
0CF900003FF7
0EFD00007FF5
2FFA0001EFF2
3FF8000BFF90
3FF902BFFE20
2FFDBFFFE300
0CFFFFFF4000
06FFFFE50000
008CD7100000
ENDCHAR
STARTCHAR V
ENCODING 86
SWIDTH 583 0
DWIDTH 9 0
BBX 10 13 1 -1
BITMAP
4300000481
EC10003EF6
EF7001EFF6
DFC00BFFC1
CFE06FFE20
CFF2EFF300
AFFCFF7000
8FFFFD0000
6FFFF30000
2FFF900000
0DFF000000
06FA000000
0010000000
ENDCHAR
STARTCHAR W
ENCODING 87
SWIDTH 994 0
DWIDTH 16 0
BBX 17 12 0 0
BITMAP
000300000000003400
007F6000140000CF30
01EFD000BF5003FF90
06FF9006FFB009FF80
0BFF401EFF901EFF10
0FFE009FFF606FF900
3FFA04FFFF31DFF300
6FF62EFFFF29FFB000
9FF8EFFFFFDFFF4000
7FFFFFE49FFFFB0000
1EFFFD301EFFE10000
03BC710005FC200000
ENDCHAR
STARTCHAR X
ENCODING 88
SWIDTH 623 0
DWIDTH 10 0
BBX 12 13 -1 -1
BITMAP
003300000020
00AF900019F7
00BFF903DFFD
006FFFAFFFE5
0009FFFFFA10
0001FFFF6000
000BFFFD0000
00AFFFFF7000
08FFF6EFF300
0FFF405FFA00
3FF5000DFD00
1ED00004E700
043000001000
ENDCHAR
STARTCHAR Y
ENCODING 89
SWIDTH 493 0
DWIDTH 8 0
BBX 10 13 0 -1
BITMAP
0830000780
1FF500AFF8
0EF908FFF4
0CFC4FFF50
09FFEFF700
05FFFFB000
00CFFF2000
00BFF80000
04FFD00000
0BFF500000
3FFB000000
2FF4000000
0350000000
ENDCHAR
STARTCHAR Z
ENCODING 90
SWIDTH 664 0
DWIDTH 11 0
BBX 13 13 -1 -1
BITMAP
00036765555100
000AFFFFFFFB00
0006FFFFFFFF10
0000543BFFF800
000001AFFE5000
00005DFFE30000
0009FFFD300000
03DFFF91000000
0DFFE400371000
2FFF76AEFFC000
1FFFFFFFFF7000
08FFFFEB610000
00598400000000
ENDCHAR
STARTCHAR bracketleft
ENCODING 91
SWIDTH 387 0
DWIDTH 6 0
BBX 13 18 -1 -3
BITMAP
00000245665100
0000DFFFFFFD20
0000CFFFFEDA20
0000FF60000000
0003FF20000000
0007FD00000000
000BFA00000000
000EF600000000
004FF200000000
008FD000000000
00DFA000000000
02FF6000000000
06FF1000000000
0BFC0000000000
1FF81220000000
5FFFFFF8000000
5FFFFFF9000000
08742100000000
ENDCHAR
STARTCHAR backslash
ENCODING 92
SWIDTH 352 0
DWIDTH 6 0
BBX 4 13 1 -1
BITMAP
A200
FE10
DF30
AF50
7F70
4F90
2FD0
0EF1
0BF3
0AF5
09F7
07F8
0051
ENDCHAR
STARTCHAR bracketright
ENCODING 93
SWIDTH 403 0
DWIDTH 6 0
BBX 12 18 -5 -3
BITMAP
000013677740
0000AFFFFFF6
00007FFEEFF8
000014101FF4
000000004FF1
000000008FC0
00000000CF90
00000001FF50
00000005FF10
00000009FC00
0000000EF800
0000003FF500
0000007FE100
000000CFB000
000023FF6000
4BDFFFFF1000
5FFFFFF90000
087421000000
ENDCHAR
STARTCHAR asciicircum
ENCODING 94
SWIDTH 518 0
DWIDTH 8 0
BBX 8 10 0 2
BITMAP
00005C20
0000CF80
0006FFC0
001EFFF0
00AFCFF2
06FF2EF3
4FF70CF3
DFB009F4
CD1001D3
11000000
ENDCHAR
STARTCHAR underscore
ENCODING 95
SWIDTH 708 0
DWIDTH 11 0
BBX 14 3 -2 -1
BITMAP
5ABCDDDEEDCA30
5FFFFFFFFFFFE2
05764433333100
ENDCHAR
STARTCHAR grave
ENCODING 96
SWIDTH 754 0
DWIDTH 12 0
BBX 6 5 4 7
BITMAP
0A7000
4FF900
1BFF80
009FF4
0005C2
ENDCHAR
STARTCHAR a
ENCODING 97
SWIDTH 581 0
DWIDTH 9 0
BBX 11 11 -1 -1
BITMAP
000001610000
00001BFD0000
0006EFFF0000
001EFFFF3000
006FF6DF6000
00DFB1BFD910
05FFFFFFFD10
0CFAEFCFF300
3FF2105FF400
1EC0006FB000
010000020000
ENDCHAR
STARTCHAR b
ENCODING 98
SWIDTH 573 0
DWIDTH 9 0
BBX 10 11 -1 -1
BITMAP
001589A600
1BFFFFFFB0
4FFFA5AFF3
079EAAFFC0
003FFFFD20
007FFFFF60
00AFA208F5
02FF428FF9
05FFCFFFE3
03FFFFC710
0032520000
ENDCHAR
STARTCHAR c
ENCODING 99
SWIDTH 513 0
DWIDTH 8 0
BBX 8 11 0 -1
BITMAP
00000360
0002AFF9
008FFFFA
0BFFFA50
8FFC4000
EFA00000
EF100000
BF964320
3FFFFFF4
03AEFFE3
00001100
ENDCHAR
STARTCHAR d
ENCODING 100
SWIDTH 497 0
DWIDTH 8 0
BBX 8 11 0 -1
BITMAP
07100000
1FFB4000
2FEFF800
1F84AFA0
0FA007F6
1FB003FA
4F919FF7
9FDFFF90
BFFFD500
7FB50000
02000000
ENDCHAR
STARTCHAR e
ENCODING 101
SWIDTH 521 0
DWIDTH 8 0
BBX 9 11 0 -1
BITMAP
0000146710
039CFFFFA0
0FFFFFD920
0CFD520000
09FEDE8000
1EFFFFD200
8FE6651000
CF92358200
BFFFFFFC00
5EFFFEB300
0132100000
ENDCHAR
STARTCHAR f
ENCODING 102
SWIDTH 455 0
DWIDTH 7 0
BBX 11 11 -1 -1
BITMAP
00000369A500
0049DFFFFF40
04FFFEA75410
01CFF2000000
004FC0010000
2DEFFDFE1000
3FFFFFFB0000
09FC52000000
0BF400000000
08F200000000
002000000000
ENDCHAR
STARTCHAR g
ENCODING 103
SWIDTH 652 0
DWIDTH 10 0
BBX 11 11 0 -1
BITMAP
000000720000
00004DFF3000
0009FFFD2000
00BFFE600000
0AFFB1293000
6FFA007FFA10
EFB0002FFFC0
DF647ADFFFC0
9FFFFFFFE810
1BFFDB730000
001100000000
ENDCHAR
STARTCHAR h
ENCODING 104
SWIDTH 582 0
DWIDTH 9 0
BBX 10 11 -1 -1
BITMAP
0002000080
007B0003F5
00BF6005FD
00DF7007FE
01EF5009FE
03FF67BFFB
07FFFFFFF7
0CFFFBBFE1
1FFE308FE0
0CF6003E90
0130000000
ENDCHAR
STARTCHAR i
ENCODING 105
SWIDTH 320 0
DWIDTH 5 0
BBX 5 11 0 -1
BITMAP
003500
00DD00
03FF20
06FF20
0AFC00
0DF800
0FF500
1FF300
0EF400
09F300
012000
ENDCHAR
STARTCHAR j
ENCODING 106
SWIDTH 534 0
DWIDTH 9 0
BBX 12 10 -1 0
BITMAP
000134555530
01CFFFFFFFF5
01FFEDEFDBC5
003400BF7000
000000EF3000
000003FE0000
000009FA0000
16415FF40000
4FFFFFD00000
0ACFFA100000
ENDCHAR
STARTCHAR k
ENCODING 107
SWIDTH 645 0
DWIDTH 10 0
BBX 11 11 0 -1
BITMAP
001710000000
009FC005D600
01FFA1BFFE00
06FF7DFFC300
0CFFFFF70000
2FFFFF400000
6FFFFF700000
AFFD7FFEDD40
BFF304DFFF70
6F7000046500
020000000000
ENDCHAR
STARTCHAR l
ENCODING 108
SWIDTH 533 0
DWIDTH 9 0
BBX 9 11 0 -1
BITMAP
0066100000
00DF800000
03FF500000
09FE000000
0EF8000000
4FF3000000
9FC0000000
CFB5897100
BFFFFFFE10
4FFFBABA10
0231000000
ENDCHAR
STARTCHAR m
ENCODING 109
SWIDTH 814 0
DWIDTH 13 0
BBX 13 11 0 -1
BITMAP
00047000002300
001EFB0001DF50
00AFFF201CFFC0
03FFFF23DFFFA0
09FFFFEFFFFF80
1FFDFFFFF7EF60
8FF39FEA23FF40
CFD0010005FF10
DF60000006FB00
9E00000002C300
12000000000000
ENDCHAR
STARTCHAR n
ENCODING 110
SWIDTH 564 0
DWIDTH 9 0
BBX 11 10 -1 0
BITMAP
000060005200
0005FB00DE20
000CFF33FF50
004FFE06FD00
00CFFB09FA00
04FFFB1EF800
0BFFFDBFF500
2FFDAFFFE100
1EF62EFF6000
07E102B70000
ENDCHAR
STARTCHAR o
ENCODING 111
SWIDTH 628 0
DWIDTH 10 0
BBX 10 11 0 -1
BITMAP
000005B100
00008FFC00
001BFFFC00
01CFFEEF30
0AFF706FA0
4FF6000CF2
AFA0000BF6
CF7236DFF6
AFFFFFFFA1
1CFFFEA400
0022200000
ENDCHAR
STARTCHAR p
ENCODING 112
SWIDTH 524 0
DWIDTH 8 0
BBX 9 11 0 -1
BITMAP
00038A8300
005FFFFF30
00DFFEFF90
06FD21AFC0
3FFDBFFFB0
7FFFFFFC20
5FFFC84000
4FF1000000
7FE0000000
6FA0000000
0310000000
ENDCHAR
STARTCHAR q
ENCODING 113
SWIDTH 625 0
DWIDTH 10 0
BBX 10 11 0 -1
BITMAP
0000197100
00005FFC10
0005EFFF60
008FFD7FE1
0AFFA108F7
7FF96A47F9
EF903FEFF7
FE137EFFD1
DFEFFFFF70
4EFFE97FB0
0031000B90
ENDCHAR
STARTCHAR r
ENCODING 114
SWIDTH 541 0
DWIDTH 9 0
BBX 9 11 0 -1
BITMAP
0000770000
0008FF9000
015FFFF500
0BFF5BFB00
0FFA5CFD00
4FFFFFE500
7FFFD82000
9FFFA20000
CFBFFFDA40
8F23AFFF90
0100016830
ENDCHAR
STARTCHAR s
ENCODING 115
SWIDTH 463 0
DWIDTH 7 0
BBX 10 11 0 -1
BITMAP
0000379930
028DFFFFC0
6FFFEBCBB1
CFFF600000
8FFFFA0000
0146BF5000
00003FA000
0018EF6000
2EFFFA0000
2FFD600000
0330000000
ENDCHAR
STARTCHAR t
ENCODING 116
SWIDTH 479 0
DWIDTH 8 0
BBX 11 11 0 -1
BITMAP
00026579A600
DEFFFFFFFF40
CFFFFFB98610
144AFB000000
001EF5000000
006FD0000000
00CF70000000
01FF10000000
01FC00000000
00BF40000000
000500000000
ENDCHAR
STARTCHAR u
ENCODING 117
SWIDTH 584 0
DWIDTH 9 0
BBX 10 10 0 0
BITMAP
0000000060
03200002F4
0CD00006F9
0EF4000AFA
1FF4002FF7
3FF101CFE1
3FF24CFF70
1EFFFFF700
0AFFFF9000
03DFB40000
ENDCHAR
STARTCHAR v
ENCODING 118
SWIDTH 485 0
DWIDTH 8 0
BBX 8 11 1 -1
BITMAP
51000064
EA0007FD
DF304FFA
CF61DFD1
CF79FE30
BFCFF600
9FFFC000
6FFF2000
2FF80000
0BF30000
00200000
ENDCHAR
STARTCHAR w
ENCODING 119
SWIDTH 825 0
DWIDTH 13 0
BBX 14 11 0 -1
BITMAP
00210000000061
01DC10062002F9
07FF104FD009FE
0CFB00DFE01EF9
1FF608FFB06FF2
4FF12FFF80DFB0
7FD2DFFF89FF40
9FDEFFAFFFFC00
4FFFF80AFFF300
08EC4002DE4000
00000000110000
ENDCHAR
STARTCHAR x
ENCODING 120
SWIDTH 506 0
DWIDTH 8 0
BBX 10 11 -1 -1
BITMAP
0041000011
00EE4006EC
00DFE3AFFD
005FFFFFA2
0009FFF600
003EFFB000
02EFFFF500
0CFE4AFE10
2FF302FF50
2F90008F20
0510000100
ENDCHAR
STARTCHAR y
ENCODING 121
SWIDTH 400 0
DWIDTH 6 0
BBX 9 11 0 -1
BITMAP
0820018500
1FE01BFF10
0EF39FF800
0CFAFF9000
09FFFC0000
02EFF30000
02EF900000
09FE100000
2FF7000000
3FD0000000
0430000000
ENDCHAR
STARTCHAR z
ENCODING 122
SWIDTH 547 0
DWIDTH 9 0
BBX 11 11 -1 -1
BITMAP
000576665200
001FFFFFFE10
0009DBDFFF10
000004EFE400
00018FFD2000
003DFFC20000
06FFF7000000
1EFD316A9100
2FFEDFFFE300
0BFFFFD81000
017961000000
ENDCHAR
STARTCHAR braceleft
ENCODING 123
SWIDTH 448 0
DWIDTH 7 0
BBX 13 18 0 -3
BITMAP
00000135565300
00006FFFFFFF60
00005FFFFEDC60
00008FC1000000
0000BF80000000
0001FF50000000
003AFF10000000
4BFFFA00000000
AFFD3000000000
4FFF9100000000
03DFF200000000
00AFD000000000
00EF8000000000
04FF4000000000
08FE1221000000
0DFFFFFD200000
0DFFFFFD200000
05852200000000
ENDCHAR
STARTCHAR bar
ENCODING 124
SWIDTH 332 0
DWIDTH 5 0
BBX 6 13 0 -1
BITMAP
000270
0009F1
000EF3
004FD0
008F70
00DF20
04FC00
08F700
0EF300
6FC000
DF6000
DE2000
120000
ENDCHAR
STARTCHAR braceright
ENCODING 125
SWIDTH 481 0
DWIDTH 8 0
BBX 13 18 -5 -3
BITMAP
00001367873000
0000CFFFFFF400
0000AFFEEFF500
000014003FF200
000000007FE000
00000000BFA000
00000001FF6000
00000005FF8000
00000004EFFB00
000000003FFF50
0000001AFFFC20
0000005FFB3000
000000AFD00000
000000EF900000
000026FF400000
6BDFFFFE000000
7FFFFFF7000000
19632100000000
ENDCHAR
STARTCHAR asciitilde
ENCODING 126
SWIDTH 581 0
DWIDTH 9 0
BBX 9 4 0 3
BITMAP
0045200330
1CFFE59F90
9FABFFFD10
7600798100
ENDCHAR
STARTCHAR uni00A0
ENCODING 160
SWIDTH 370 0
DWIDTH 6 0
BBX 1 1 0 0
BITMAP
00
ENDCHAR
STARTCHAR exclamdown
ENCODING 161
SWIDTH 260 0
DWIDTH 4 0
BBX 6 13 -1 -1
BITMAP
002B70
008FE1
006D90
000000
009900
02FF00
07FE00
09FC00
0CF700
1FF500
1FF100
1DB000
031000
ENDCHAR
STARTCHAR cent
ENCODING 162
SWIDTH 488 0
DWIDTH 8 0
BBX 8 13 0 -1
BITMAP
00003500
0000BD00
0001FFA1
003BFFF6
07FFFC70
5FFC4000
CF800000
BF100000
6FECA960
07FFFFE1
05FE5410
06F90000
00400000
ENDCHAR
STARTCHAR sterling
ENCODING 163
SWIDTH 586 0
DWIDTH 9 0
BBX 11 10 -1 1
BITMAP
000001451100
00003EFFFE10
0000EFEBDF30
0005FE100100
06AEFFEB2000
09FFFFFE7000
029FE2100000
038FD46AA000
1FFFFFFFF300
06CDCBA85000
ENDCHAR
STARTCHAR currency
ENCODING 164
SWIDTH 509 0
DWIDTH 8 0
BBX 8 9 0 0
BITMAP
06417133
0CFDFEFC
08FFFFE6
0DFDDF70
5FE29FB0
7FFFFFB0
AFFFFF60
CC335F70
44000410
ENDCHAR
STARTCHAR yen
ENCODING 165
SWIDTH 563 0
DWIDTH 9 0
BBX 10 10 0 0
BITMAP
01E7003EA0
00FF13EFE1
00EF5CFE30
00BFEFF400
24AFFFC300
BFFFFFFF40
6EEFFA8610
00CFC00000
03FF400000
01DB000000
ENDCHAR
STARTCHAR brokenbar
ENCODING 166
SWIDTH 301 0
DWIDTH 5 0
BBX 6 13 -1 -1
BITMAP
000055
0000DD
0002FF
0008FA
000DF4
000AB0
000000
008600
03FE00
0AF900
1FF300
2FC000
021000
ENDCHAR
STARTCHAR section
ENCODING 167
SWIDTH 630 0
DWIDTH 10 0
BBX 10 15 0 -2
BITMAP
0000257971
018CFFFFFA
08FFFFEDF8
09FFC30010
04FFFE8200
03DFFFFE40
1EFFECEFE2
5FF7017FF6
1DFFDFFFE2
03DFFFFE30
0017DFFF60
02003CFFB0
8FEFFFFF90
8FFFFFC810
0687410000
ENDCHAR
STARTCHAR dieresis
ENCODING 168
SWIDTH 754 0
DWIDTH 12 0
BBX 8 3 3 9
BITMAP
18600980
5FF32FF6
3D9019A1
ENDCHAR
STARTCHAR copyright
ENCODING 169
SWIDTH 614 0
DWIDTH 10 0
BBX 10 11 0 1
BITMAP
0000387000
003DFEAC30
02ED5057E1
0BF37DF6E7
3F89FA40BA
8F4E3000BB
AE3E6301E9
7F29FF6BE2
1D9015AF50
02AEDFC400
0002430000
ENDCHAR
STARTCHAR ordfeminine
ENCODING 170
SWIDTH 454 0
DWIDTH 7 0
BBX 8 8 0 3
BITMAP
00012000
002BF700
02FFFA00
0AFFFE10
2FFCFFE1
AFFFFFA0
EF56FF60
68007800
ENDCHAR
STARTCHAR guillemotleft
ENCODING 171
SWIDTH 566 0
DWIDTH 9 0
BBX 10 8 -1 -1
BITMAP
0000860095
0009F91AF8
04CFC6DFB1
1FF93FF900
0EF71EF600
03EF74EF50
002BD03CC0
0000300030
ENDCHAR
STARTCHAR logicalnot
ENCODING 172
SWIDTH 698 0
DWIDTH 11 0
BBX 10 6 0 0
BITMAP
1245666530
DFFFFFFFF9
8FECBBBCFE
0100000BF8
0000002FF2
0000001EB0
ENDCHAR
STARTCHAR sfthyphen
ENCODING 173
SWIDTH 608 0
DWIDTH 10 0
BBX 9 4 0 2
BITMAP
0245665200
8FFFFFFF50
5FECBBA830
0100000000
ENDCHAR
STARTCHAR registered
ENCODING 174
SWIDTH 624 0
DWIDTH 10 0
BBX 10 11 0 1
BITMAP
0000378100
002CFEAC40
01DE6474F3
09F54EF6D9
1FA4F7CA9D
6F39FFD48D
7F1DFB10CB
5F5F7EFDF4
0CB202DF70
019FDFD500
0002440000
ENDCHAR
STARTCHAR macron
ENCODING 175
SWIDTH 754 0
DWIDTH 12 0
BBX 6 3 4 9
BITMAP
6ABCC5
CFFFFA
564440
ENDCHAR
STARTCHAR degree
ENCODING 176
SWIDTH 284 0
DWIDTH 5 0
BBX 5 5 1 8
BITMAP
006E20
08FF50
4FAEC0
9FDFF0
4EEB40
ENDCHAR
STARTCHAR plusminus
ENCODING 177
SWIDTH 559 0
DWIDTH 9 0
BBX 10 12 -1 -1
BITMAP
000006E100
00000EF600
00003FF500
02ACEFFEC4
02FFFFFFFB
0067EFB210
0000FF7000
0001EE2000
0012342100
4EFFFFFF60
3FFFEEDC70
0320000000
ENDCHAR
STARTCHAR twosuperior
ENCODING 178
SWIDTH 386 0
DWIDTH 6 0
BBX 6 7 1 5
BITMAP
155300
BFFF90
6AEFE1
1CFE40
BFFCC9
CFFFFA
265300
ENDCHAR
STARTCHAR threesuperior
ENCODING 179
SWIDTH 366 0
DWIDTH 6 0
BBX 6 7 1 5
BITMAP
035620
BFFFD1
AFFFC0
09FFA0
06CFF4
0FFFD1
046400
ENDCHAR
STARTCHAR acute
ENCODING 180
SWIDTH 754 0
DWIDTH 12 0
BBX 6 5 4 7
BITMAP
0007A0
009FF4
08FFB1
4FF900
2C5000
ENDCHAR
STARTCHAR mu
ENCODING 181
SWIDTH 569 0
DWIDTH 9 0
BBX 10 11 -1 -2
BITMAP
0000000052
00530000C9
00CD0001FD
00EF3005FC
02FF001DF7
06FE02CFE1
08FFBFFE30
0DFFFFF400
0FFDFA2000
2FD0000000
1950000000
ENDCHAR
STARTCHAR paragraph
ENCODING 182
SWIDTH 729 0
DWIDTH 12 0
BBX 12 13 1 -1
BITMAP
000157ABEE80
05BFFFFFFFF8
9FFFFFFBFF92
FFFA9FD3FE00
EFB09FA7FB00
7FFADF7AF800
07FFFFDEF500
002AFFFFFB00
0009FC9FD400
000AF8AF9000
000DF49FC000
001FE15FF100
000230044000
ENDCHAR
STARTCHAR periodcentered
ENCODING 183
SWIDTH 226 0
DWIDTH 4 0
BBX 4 4 0 4
BITMAP
0020
2FD2
4FF3
0530
ENDCHAR
STARTCHAR cedilla
ENCODING 184
SWIDTH 754 0
DWIDTH 12 0
BBX 6 6 4 -5
BITMAP
01B900
09F700
09FFA0
0039F8
7BCEF9
4CDB70
ENDCHAR
STARTCHAR onesuperior
ENCODING 185
SWIDTH 206 0
DWIDTH 3 0
BBX 3 7 1 5
BITMAP
2400
7F40
5F80
7F80
CF40
EE00
4300
ENDCHAR
STARTCHAR ordmasculine
ENCODING 186
SWIDTH 445 0
DWIDTH 7 0
BBX 7 8 0 3
BITMAP
00006100
002CFB00
03EFFE00
1DFFFF50
8FE38FB0
CFDAEFE0
AFFFFF60
19CB8200
ENDCHAR
STARTCHAR guillemotright
ENCODING 187
SWIDTH 595 0
DWIDTH 10 0
BBX 10 8 -1 -1
BITMAP
0770067100
05FC24FD20
00AFD19FE2
001DF70CF7
02DFD6CFD5
2EF92DF910
4F603F7000
0300030000
ENDCHAR
STARTCHAR onequarter
ENCODING 188
SWIDTH 705 0
DWIDTH 11 0
BBX 11 13 0 -1
BITMAP
023000037000
09F3002EC000
07F601CFA000
09F609FD2000
0EF26FE30000
1FC3FF402100
054DF970CB00
01CFA7F4FE10
0AFC15FFFF90
4FE201CFFA20
7FB0000ED000
6F80000DF100
020000023000
ENDCHAR
STARTCHAR onehalf
ENCODING 189
SWIDTH 750 0
DWIDTH 12 0
BBX 12 13 0 -1
BITMAP
023000037000
09F3002EC000
07F601CFA000
09F609FD2000
0EF26FE30000
1FC3FF400000
054DF89BA400
01CFA2FFFF30
0AFC104CFE20
4FE200AFD530
7FB004FFFFF1
6F8001DFDA60
020000000000
ENDCHAR
STARTCHAR threequarters
ENCODING 190
SWIDTH 818 0
DWIDTH 13 0
BBX 12 13 1 -1
BITMAP
278950000620
BFFFF1007F60
6FFF9006FF40
0CFF605FF700
7BEFA4FF5000
CFFC7FF50210
0213EF860D90
004EF5AF4FB0
04FF50BFFFF3
1EF5006EFD70
6FC00008F500
7F700008F600
020000014000
ENDCHAR
STARTCHAR questiondown
ENCODING 191
SWIDTH 556 0
DWIDTH 9 0
BBX 10 13 -1 -1
BITMAP
0000001850
0000008FE1
0000005EE0
0000000110
000002B700
00006EF900
004CFFD200
0AFFFB1000
8FFE500000
DFFB756920
EFFFFFFF70
6CFFFFFE20
0014677100
ENDCHAR
STARTCHAR Agrave
ENCODING 192
SWIDTH 702 0
DWIDTH 11 0
BBX 13 18 -1 -1
BITMAP
000000A7000000
000004FF900000
000001BFF80000
00000009FF4000
000000005C2000
00000016200000
000000AFF30000
00006CFFF70000
0002FFFFF90000
000AFFEEFC0000
002FFF3BFF1000
008FF808FFD700
01EFFEFFFFFD10
08FFCFFFFFE100
0EFD1884BFF000
3FF80007FFD000
0CD30002EE3000
00000000100000
ENDCHAR
STARTCHAR Aacute
ENCODING 193
SWIDTH 702 0
DWIDTH 11 0
BBX 13 18 -1 -1
BITMAP
000000005B1000
00000007FF6000
0000006FFC2000
000001FFA10000
000001C7000000
00000016200000
000000AFF30000
00006CFFF70000
0002FFFFF90000
000AFFEEFC0000
002FFF3BFF1000
008FF808FFD700
01EFFEFFFFFD10
08FFCFFFFFE100
0EFD1884BFF000
3FF80007FFD000
0CD30002EE3000
00000000100000
ENDCHAR
STARTCHAR Acircumflex
ENCODING 194
SWIDTH 702 0
DWIDTH 11 0
BBX 13 18 -1 -1
BITMAP
00000003300000
0000007FF70000
000008FEEF8000
00003FE34FF300
00000830038000
00000016200000
000000AFF30000
00006CFFF70000
0002FFFFF90000
000AFFEEFC0000
002FFF3BFF1000
008FF808FFD700
01EFFEFFFFFD10
08FFCFFFFFE100
0EFD1884BFF000
3FF80007FFD000
0CD30002EE3000
00000000100000
ENDCHAR
STARTCHAR Atilde
ENCODING 195
SWIDTH 702 0
DWIDTH 11 0
BBX 13 17 -1 -1
BITMAP
0000009ED54D80
000008FFFFEF30
00000EC2BFE600
00000000010000
00000016200000
000000AFF30000
00006CFFF70000
0002FFFFF90000
000AFFEEFC0000
002FFF3BFF1000
008FF808FFD700
01EFFEFFFFFD10
08FFCFFFFFE100
0EFD1884BFF000
3FF80007FFD000
0CD30002EE3000
00000000100000
ENDCHAR
STARTCHAR Adieresis
ENCODING 196
SWIDTH 702 0
DWIDTH 11 0
BBX 13 17 -1 -1
BITMAP
00000780088100
00003FF50EF800
00002CA108B200
00000000000000
00000016200000
000000AFF30000
00006CFFF70000
0002FFFFF90000
000AFFEEFC0000
002FFF3BFF1000
008FF808FFD700
01EFFEFFFFFD10
08FFCFFFFFE100
0EFD1884BFF000
3FF80007FFD000
0CD30002EE3000
00000000100000
ENDCHAR
STARTCHAR Aring
ENCODING 197
SWIDTH 702 0
DWIDTH 11 0
BBX 13 17 -1 -1
BITMAP
00000000140000
00000003DE0000
0000002EFF5000
000000AF7FB000
000000CFFF9000
000000AFF60000
00006BFFF70000
0002FFFFF90000
000AFFEEFC0000
002FFF3BFF1000
008FF808FFD700
01EFFEFFFFFD10
08FFCFFFFFE100
0EFD1884BFF000
3FF80007FFD000
0CD30002EE3000
00000000100000
ENDCHAR
STARTCHAR AE
ENCODING 198
SWIDTH 1153 0
DWIDTH 18 0
BBX 20 13 -1 -1
BITMAP
00000003500000024670
0000002EFC026AEFFFFB
000029EFFD5FFFFFFFE6
0000DFFFFD5FFFEC7410
0008FFEEFE1EFD333000
002FFF4BFF1EFFFFF700
00BFF60AFFDFFFFFFC00
05FFFEFFFFFFF9995000
1EFEDFFFFFFF80001300
8FF55866FFFFBABCFF70
EFC0004EFFFFFFFFFFA0
AE40000EE78FFFEEB600
00000001000021000000
ENDCHAR
STARTCHAR Ccedilla
ENCODING 199
SWIDTH 611 0
DWIDTH 10 0
BBX 10 17 0 -5
BITMAP
0000002710
000018FFD2
0007EFFFF6
01BFFFFE90
1CFFFD5000
9FFF810000
FFE4000000
EF70000000
CF91000000
6FFFDCBB40
09FFFFFFE0
005FFEEE60
009F600000
00BFE70000
0016BF6000
0689DF9000
06FFD91000
ENDCHAR
STARTCHAR Egrave
ENCODING 200
SWIDTH 626 0
DWIDTH 10 0
BBX 11 18 0 -1
BITMAP
000079000000
0001FFC10000
00008FFB0000
000006FF7000
0000003B4000
000000357400
0048CFFFFF50
0BFFFFFFFC10
0BFFFEA52000
06FF82320000
06FFFFFD3000
0DFFFFFF6000
5FFC99820000
CFF200022000
CFEAACDFD200
9FFFFFFFF400
2CFFFED93000
001100000000
ENDCHAR
STARTCHAR Eacute
ENCODING 201
SWIDTH 626 0
DWIDTH 10 0
BBX 11 18 0 -1
BITMAP
00000007A000
0000009FF400
000008FFB100
00004FF90000
00002C500000
000000357400
0048CFFFFF50
0BFFFFFFFC10
0BFFFEA52000
06FF82320000
06FFFFFD3000
0DFFFFFF6000
5FFC99820000
CFF200022000
CFEAACDFD200
9FFFFFFFF400
2CFFFED93000
001100000000
ENDCHAR
STARTCHAR Ecircumflex
ENCODING 202
SWIDTH 626 0
DWIDTH 10 0
BBX 11 18 0 -1
BITMAP
000000510000
00002CFD2000
0003DFDFE300
000AFB0AFB00
000290008300
000000357400
0048CFFFFF50
0BFFFFFFFC10
0BFFFEA52000
06FF82320000
06FFFFFD3000
0DFFFFFF6000
5FFC99820000
CFF200022000
CFEAACDFD200
9FFFFFFFF400
2CFFFED93000
001100000000
ENDCHAR
STARTCHAR Edieresis
ENCODING 203
SWIDTH 626 0
DWIDTH 10 0
BBX 11 16 0 -1
BITMAP
000393039600
000AFE06FF10
0007D603B700
000000357400
0048CFFFFF50
0BFFFFFFFC10
0BFFFEA52000
06FF82320000
06FFFFFD3000
0DFFFFFF6000
5FFC99820000
CFF200022000
CFEAACDFD200
9FFFFFFFF400
2CFFFED93000
001100000000
ENDCHAR
STARTCHAR Igrave
ENCODING 204
SWIDTH 515 0
DWIDTH 8 0
BBX 12 19 -1 -1
BITMAP
00001C400000
00008FF50000
00003DFF5000
000001CFE000
00000008B000
000000000000
000358899830
003FFFFFFFE3
001EFFFFCB81
00023AFC0000
00000DF80000
00003FF40000
00008FE00000
0000EFA00000
0005FF400000
146DFFB50000
7FFFFFFF1000
3FFCAA850000
020000000000
ENDCHAR
STARTCHAR Iacute
ENCODING 205
SWIDTH 515 0
DWIDTH 8 0
BBX 12 19 -1 -1
BITMAP
000000000970
00000001BFF1
0000000BFF90
0000007FF600
0000004B3000
000000000000
000358899830
003FFFFFFFE3
001EFFFFCB81
00023AFC0000
00000DF80000
00003FF40000
00008FE00000
0000EFA00000
0005FF400000
146DFFB50000
7FFFFFFF1000
3FFCAA850000
020000000000
ENDCHAR
STARTCHAR Icircumflex
ENCODING 206
SWIDTH 515 0
DWIDTH 8 0
BBX 12 19 -1 -1
BITMAP
000000041000
000001BFE400
00001CFDFE50
00007FC18FD0
000019100750
000000000000
000358899830
003FFFFFFFE3
001EFFFFCB81
00023AFC0000
00000DF80000
00003FF40000
00008FE00000
0000EFA00000
0005FF400000
146DFFB50000
7FFFFFFF1000
3FFCAA850000
020000000000
ENDCHAR
STARTCHAR Idieresis
ENCODING 207
SWIDTH 515 0
DWIDTH 8 0
BBX 12 17 -1 -1
BITMAP
000018600980
00005FF32FF6
00003D9019A1
000000000000
000358899830
003FFFFFFFE3
001EFFFFCB81
00023AFC0000
00000DF80000
00003FF40000
00008FE00000
0000EFA00000
0005FF400000
146DFFB50000
7FFFFFFF1000
3FFCAA850000
020000000000
ENDCHAR
STARTCHAR Eth
ENCODING 208
SWIDTH 656 0
DWIDTH 11 0
BBX 12 13 -1 -1
BITMAP
000630000000
000DFC710000
000CFFFE4000
000FF8DFF700
002DF505EF50
2DFFFF903EE0
2FFFFFB02EF3
0A9FF416EFF2
005FF8DFFF60
009FFFFFD400
009FFFE71000
004FC6000000
000100000000
ENDCHAR
STARTCHAR Ntilde
ENCODING 209
SWIDTH 684 0
DWIDTH 11 0
BBX 13 16 -1 0
BITMAP
0000006DE81BC0
000003FFFFEF80
00000AE47FFA00
00000000001000
00002400017000
0000AF9005FB00
0002FFF30BFF40
0009FFF30EFE10
002FFFD02FF900
009FFFB05FF600
01EFFFB0CFF400
08FFFFC6FFF200
1EFFDFFFFFC000
1FFF39FFFF5000
0CFB01CFF90000
03E50018700000
ENDCHAR
STARTCHAR Ograve
ENCODING 210
SWIDTH 744 0
DWIDTH 12 0
BBX 12 18 0 -1
BITMAP
0000006A1000
000000EFC100
0000008FFC10
00000005FF80
000000003B50
0000004C4000
000007FFF300
0001AFFFF500
001BFFFFF700
00CFFEAAFE10
08FFD201EF70
3FFD20006FD0
8FF400004FF3
CFC00016EFF5
CFFAACFFFFE1
6FFFFFFFFC20
07EFFFD93000
000121000000
ENDCHAR
STARTCHAR Oacute
ENCODING 211
SWIDTH 744 0
DWIDTH 12 0
BBX 12 18 0 -1
BITMAP
00000005B100
0000007FF600
000006FFC200
00001FFA1000
00001C700000
0000004C4000
000007FFF300
0001AFFFF500
001BFFFFF700
00CFFEAAFE10
08FFD201EF70
3FFD20006FD0
8FF400004FF3
CFC00016EFF5
CFFAACFFFFE1
6FFFFFFFFC20
07EFFFD93000
000121000000
ENDCHAR
STARTCHAR Ocircumflex
ENCODING 212
SWIDTH 744 0
DWIDTH 12 0
BBX 12 18 0 -1
BITMAP
000000042000
000000AFE500
00001BFDFF60
00006FD26FE0
000019100560
0000004C4000
000007FFF300
0001AFFFF500
001BFFFFF700
00CFFEAAFE10
08FFD201EF70
3FFD20006FD0
8FF400004FF3
CFC00016EFF5
CFFAACFFFFE1
6FFFFFFFFC20
07EFFFD93000
000121000000
ENDCHAR
STARTCHAR Otilde
ENCODING 213
SWIDTH 744 0
DWIDTH 12 0
BBX 12 17 0 -1
BITMAP
000006DE81BC
00003FFFFEF8
0000AE47FFA0
000000000100
0000004C4000
000007FFF300
0001AFFFF500
001BFFFFF700
00CFFEAAFE10
08FFD201EF70
3FFD20006FD0
8FF400004FF3
CFC00016EFF5
CFFAACFFFFE1
6FFFFFFFFC20
07EFFFD93000
000121000000
ENDCHAR
STARTCHAR Odieresis
ENCODING 214
SWIDTH 744 0
DWIDTH 12 0
BBX 12 17 0 -1
BITMAP
000029402960
00008FE15FF3
00006D702A80
000000000000
0000004C4000
000007FFF300
0001AFFFF500
001BFFFFF700
00CFFEAAFE10
08FFD201EF70
3FFD20006FD0
8FF400004FF3
CFC00016EFF5
CFFAACFFFFE1
6FFFFFFFFC20
07EFFFD93000
000121000000
ENDCHAR
STARTCHAR multiply
ENCODING 215
SWIDTH 490 0
DWIDTH 8 0
BBX 8 9 0 0
BITMAP
03000010
0DC105E8
0CFB9FF8
02EFFE40
01DFE200
1CFFF600
AFC4FE20
ED109F50
A6001910
ENDCHAR
STARTCHAR Oslash
ENCODING 216
SWIDTH 744 0
DWIDTH 12 0
BBX 12 14 0 -2
BITMAP
0000004C41A1
000007FFFDF3
0001AFFFFFF2
001BFFFFFFB0
00CFFECFFF20
08FFD4DFFF70
3FFD2BFE9FD0
8FF48FF64FF3
CFC7FFA6EFF5
CFEFFFFFFFE1
6FFFFFFFFC20
09FFFFD93000
07FF31000000
03EC00000000
ENDCHAR
STARTCHAR Ugrave
ENCODING 217
SWIDTH 695 0
DWIDTH 11 0
BBX 12 16 0 0
BITMAP
0002C2000000
000AFE300000
0004EFE30000
00002DFC0000
000001990430
002000000AE0
09D200000FF3
0CF900003FF7
0EFD00007FF5
2FFA0001EFF2
3FF8000BFF90
3FF902BFFE20
2FFDBFFFE300
0CFFFFFF4000
06FFFFE50000
008CD7100000
ENDCHAR
STARTCHAR Uacute
ENCODING 218
SWIDTH 695 0
DWIDTH 11 0
BBX 12 17 0 0
BITMAP
000000009700
0000001BFF10
000000BFF900
000007FF6000
000004B30000
000000000430
002000000AE0
09D200000FF3
0CF900003FF7
0EFD00007FF5
2FFA0001EFF2
3FF8000BFF90
3FF902BFFE20
2FFDBFFFE300
0CFFFFFF4000
06FFFFE50000
008CD7100000
ENDCHAR
STARTCHAR Ucircumflex
ENCODING 219
SWIDTH 695 0
DWIDTH 11 0
BBX 12 17 0 0
BITMAP
000000410000
00001BFE4000
0001CFDFE500
0007FC18FD00
000191007500
000000000430
002000000AE0
09D200000FF3
0CF900003FF7
0EFD00007FF5
2FFA0001EFF2
3FF8000BFF90
3FF902BFFE20
2FFDBFFFE300
0CFFFFFF4000
06FFFFE50000
008CD7100000
ENDCHAR
STARTCHAR Udieresis
ENCODING 220
SWIDTH 695 0
DWIDTH 11 0
BBX 12 16 0 0
BITMAP
000285019700
0008FF14FF40
0005D702A900
000000000000
000000000430
002000000AE0
09D200000FF3
0CF900003FF7
0EFD00007FF5
2FFA0001EFF2
3FF8000BFF90
3FF902BFFE20
2FFDBFFFE300
0CFFFFFF4000
06FFFFE50000
008CD7100000
ENDCHAR
STARTCHAR Yacute
ENCODING 221
SWIDTH 493 0
DWIDTH 8 0
BBX 10 19 0 -1
BITMAP
0000000980
000000BFF2
00000AFF90
00006FF700
00004C4000
0000000000
0830000780
1FF500AFF8
0EF908FFF4
0CFC4FFF50
09FFEFF700
05FFFFB000
00CFFF2000
00BFF80000
04FFD00000
0BFF500000
3FFB000000
2FF4000000
0350000000
ENDCHAR
STARTCHAR Thorn
ENCODING 222
SWIDTH 680 0
DWIDTH 11 0
BBX 11 13 0 -1
BITMAP
003500000000
01ED00000000
05FF97531000
09FFFFFFF800
0CFFCCDEFF90
1FFD0008FFE0
5FFA029FFFB0
6FFBAFFFFA10
7FFFFFFA4000
7FFFB6100000
3FF500000000
0DE200000000
011000000000
ENDCHAR
STARTCHAR germandbls
ENCODING 223
SWIDTH 931 0
DWIDTH 15 0
BBX 17 11 0 -1
BITMAP
000037993001589600
028DFFFFC5BFFFFF40
6FFFEBCCFFFFDBBC60
CFFF6005FFFB200000
8FFFFA02EFFFF30000
0146BF500358EB0000
00003FA00000AF2000
0018EF60004CFD0000
2EFFFA00AEFFE40000
2FFD6000AFFA200000
033000001310000000
ENDCHAR
STARTCHAR agrave
ENCODING 224
SWIDTH 581 0
DWIDTH 9 0
BBX 11 16 -1 -1
BITMAP
00000B500000
00006FF70000
00002CFF7000
000000AFF200
00000006C100
000001610000
00001BFD0000
0006EFFF0000
001EFFFF3000
006FF6DF6000
00DFB1BFD910
05FFFFFFFD10
0CFAEFCFF300
3FF2105FF400
1EC0006FB000
010000020000
ENDCHAR
STARTCHAR aacute
ENCODING 225
SWIDTH 581 0
DWIDTH 9 0
BBX 11 16 -1 -1
BITMAP
000000088000
000000AFF200
00000AFFA100
00005FF70000
00003C400000
000001610000
00001BFD0000
0006EFFF0000
001EFFFF3000
006FF6DF6000
00DFB1BFD910
05FFFFFFFD10
0CFAEFCFF300
3FF2105FF400
1EC0006FB000
010000020000
ENDCHAR
STARTCHAR acircumflex
ENCODING 226
SWIDTH 581 0
DWIDTH 9 0
BBX 11 16 -1 -1
BITMAP
000000420000
00001AFE4000
0001BFDFF500
0007FD17FE00
000191006500
000001610000
00001BFD0000
0006EFFF0000
001EFFFF3000
006FF6DF6000
00DFB1BFD910
05FFFFFFFD10
0CFAEFCFF300
3FF2105FF400
1EC0006FB000
010000020000
ENDCHAR
STARTCHAR atilde
ENCODING 227
SWIDTH 581 0
DWIDTH 9 0
BBX 11 14 -1 -1
BITMAP
00005DE91BD0
0002FFFFEF90
0008E66FFB10
000001621000
00001BFD0000
0006EFFF0000
001EFFFF3000
006FF6DF6000
00DFB1BFD910
05FFFFFFFD10
0CFAEFCFF300
3FF2105FF400
1EC0006FB000
010000020000
ENDCHAR
STARTCHAR adieresis
ENCODING 228
SWIDTH 581 0
DWIDTH 9 0
BBX 11 15 -1 -1
BITMAP
000078007910
0002FF60EF90
0001CB107B20
000000000000
000001610000
00001BFD0000
0006EFFF0000
001EFFFF3000
006FF6DF6000
00DFB1BFD910
05FFFFFFFD10
0CFAEFCFF300
3FF2105FF400
1EC0006FB000
010000020000
ENDCHAR
STARTCHAR aring
ENCODING 229
SWIDTH 581 0
DWIDTH 9 0
BBX 11 15 -1 -1
BITMAP
000000011000
0000003D9000
000003EFD000
00000DE9F600
00002FFFF600
00000DFF5000
0006EFFF0000
001EFFFF3000
006FF6DF6000
00DFB1BFD910
05FFFFFFFD10
0CFAEFCFF300
3FF2105FF400
1EC0006FB000
010000020000
ENDCHAR
STARTCHAR ae
ENCODING 230
SWIDTH 948 0
DWIDTH 15 0
BBX 17 11 -1 -1
BITMAP
000000530000246600
000007FF35ADFFFF70
0003EFFF6FFFFFC810
001DFFFF4EFB510000
008FF5EF5BFEDE6000
02FF82DFDFFFFFC000
0BFFFFFFFFD6640000
5FF9FDDFFF62358100
DF7013CFFFFFFFFA00
DD1003FD8FFFFEA200
110000200132000000
ENDCHAR
STARTCHAR ccedilla
ENCODING 231
SWIDTH 513 0
DWIDTH 8 0
BBX 8 15 0 -5
BITMAP
00000360
0002AFF9
008FFFFA
0BFFFA50
8FFC4000
EFA00000
EF100000
BF964320
3FFFFFF4
03BFFFE3
00BE2100
00CFD300
0004DE00
09DEFD00
03886100
ENDCHAR
STARTCHAR egrave
ENCODING 232
SWIDTH 521 0
DWIDTH 8 0
BBX 9 16 0 -1
BITMAP
006A100000
00EFC10000
008FFC1000
0005EF8000
00003B6000
0000146710
039CFFFFA0
0FFFFFD920
0CFD520000
09FEDE8000
1EFFFFD200
8FE6651000
CF92358200
BFFFFFFC00
5EFFFEB300
0132100000
ENDCHAR
STARTCHAR eacute
ENCODING 233
SWIDTH 521 0
DWIDTH 8 0
BBX 9 16 0 -1
BITMAP
000001A600
00001CFE00
0001CFF800
0008FF5000
0005B30000
0000146710
039CFFFFA0
0FFFFFD920
0CFD520000
09FEDE8000
1EFFFFD200
8FE6651000
CF92358200
BFFFFFFC00
5EFFFEB300
0132100000
ENDCHAR
STARTCHAR ecircumflex
ENCODING 234
SWIDTH 521 0
DWIDTH 8 0
BBX 10 16 0 -1
BITMAP
0000042000
00009FF600
001AFDFF70
004FE25FF1
0009200470
0000146710
039CFFFFA0
0FFFFFD920
0CFD520000
09FEDE8000
1EFFFFD200
8FE6651000
CF92358200
BFFFFFFC00
5EFFFEB300
0132100000
ENDCHAR
STARTCHAR edieresis
ENCODING 235
SWIDTH 521 0
DWIDTH 8 0
BBX 10 15 0 -1
BITMAP
0007800791
002FF60EF9
001CB107B2
0000000000
0000146710
039CFFFFA0
0FFFFFD920
0CFD520000
09FEDE8000
1EFFFFD200
8FE6651000
CF92358200
BFFFFFFC00
5EFFFEB300
0132100000
ENDCHAR
STARTCHAR igrave
ENCODING 236
SWIDTH 320 0
DWIDTH 5 0
BBX 6 16 0 -1
BITMAP
02C300
09FF40
04DFE4
002CFD
00018A
003500
00DD00
03FF20
06FF20
0AFC00
0DF800
0FF500
1FF300
0EF400
09F300
012000
ENDCHAR
STARTCHAR iacute
ENCODING 237
SWIDTH 320 0
DWIDTH 5 0
BBX 9 16 0 -1
BITMAP
0000006A00
000008FF50
00007FFB20
0003FF9000
0001C60000
0035000000
00DD000000
03FF200000
06FF200000
0AFC000000
0DF8000000
0FF5000000
1FF3000000
0EF4000000
09F3000000
0120000000
ENDCHAR
STARTCHAR icircumflex
ENCODING 238
SWIDTH 320 0
DWIDTH 5 0
BBX 8 16 0 -1
BITMAP
00033000
008FF700
09FEEF80
3FE34FF2
09300480
00350000
00DD0000
03FF2000
06FF2000
0AFC0000
0DF80000
0FF50000
1FF30000
0EF40000
09F30000
01200000
ENDCHAR
STARTCHAR idieresis
ENCODING 239
SWIDTH 320 0
DWIDTH 5 0
BBX 8 15 0 -1
BITMAP
18601970
6FF32FF5
4D901991
00000000
00350000
00DD0000
03FF2000
06FF2000
0AFC0000
0DF80000
0FF50000
1FF30000
0EF40000
09F30000
01200000
ENDCHAR
STARTCHAR eth
ENCODING 240
SWIDTH 541 0
DWIDTH 9 0
BBX 10 11 -1 -1
BITMAP
0037100000
006FEA2000
007FEFE500
006F45CF60
3BEFF60AF2
4FFFF808F6
17BF53BFF3
00EFDFFE50
01FFFFA200
00CE920000
0011000000
ENDCHAR
STARTCHAR ntilde
ENCODING 241
SWIDTH 564 0
DWIDTH 9 0
BBX 13 14 -1 0
BITMAP
000004CEA1AD10
00001EFFFEFB00
00007E75EFC200
00000000010000
00006000520000
0005FB00DE2000
000CFF33FF5000
004FFE06FD0000
00CFFB09FA0000
04FFFB1EF80000
0BFFFDBFF50000
2FFDAFFFE10000
1EF62EFF600000
07E102B7000000
ENDCHAR
STARTCHAR ograve
ENCODING 242
SWIDTH 628 0
DWIDTH 10 0
BBX 10 16 0 -1
BITMAP
00003C2000
0000BFE300
00005EFE20
000002DFC0
0000001990
000005B100
00008FFC00
001BFFFC00
01CFFEEF30
0AFF706FA0
4FF6000CF2
AFA0000BF6
CF7236DFF6
AFFFFFFFA1
1CFFFEA400
0022200000
ENDCHAR
STARTCHAR oacute
ENCODING 243
SWIDTH 628 0
DWIDTH 10 0
BBX 10 16 0 -1
BITMAP
0000004B10
000006FF70
00005FFD30
0001FFB100
0000B70000
000005B100
00008FFC00
001BFFFC00
01CFFEEF30
0AFF706FA0
4FF6000CF2
AFA0000BF6
CF7236DFF6
AFFFFFFFA1
1CFFFEA400
0022200000
ENDCHAR
STARTCHAR ocircumflex
ENCODING 244
SWIDTH 628 0
DWIDTH 10 0
BBX 10 16 0 -1
BITMAP
0000004100
00001BFE40
0001CFDFE5
0007FC18FD
0001910075
000005B100
00008FFC00
001BFFFC00
01CFFEEF30
0AFF706FA0
4FF6000CF2
AFA0000BF6
CF7236DFF6
AFFFFFFFA1
1CFFFEA400
0022200000
ENDCHAR
STARTCHAR otilde
ENCODING 245
SWIDTH 628 0
DWIDTH 10 0
BBX 12 15 0 -1
BITMAP
00004CEA1AD1
0001EFFFEFB0
0007E75EFC20
000000001000
000005B10000
00008FFC0000
001BFFFC0000
01CFFEEF3000
0AFF706FA000
4FF6000CF200
AFA0000BF600
CF7236DFF600
AFFFFFFFA100
1CFFFEA40000
002220000000
ENDCHAR
STARTCHAR odieresis
ENCODING 246
SWIDTH 628 0
DWIDTH 10 0
BBX 11 15 0 -1
BITMAP
000186009800
0005FF32FF60
0003D9019A10
000000000000
000005B10000
00008FFC0000
001BFFFC0000
01CFFEEF3000
0AFF706FA000
4FF6000CF200
AFA0000BF600
CF7236DFF600
AFFFFFFFA100
1CFFFEA40000
002220000000
ENDCHAR
STARTCHAR divide
ENCODING 247
SWIDTH 559 0
DWIDTH 9 0
BBX 9 11 0 -1
BITMAP
0000310000
0004FC1000
0006FF1000
0002850000
4689AA9400
DFFFFFFF30
7CA8775300
0039400000
00CFC00000
008F700000
0002000000
ENDCHAR
STARTCHAR oslash
ENCODING 248
SWIDTH 632 0
DWIDTH 10 0
BBX 10 12 0 -2
BITMAP
000005B263
00008FFEF7
000BFFFFF5
00BFFFFFA0
09FF8BFFB0
4FF68FDCF3
AFB5FE3AF7
CF9FFBCFF7
AFFFFFFFC1
2DFFFFB600
0AF9300000
05D3000000
ENDCHAR
STARTCHAR ugrave
ENCODING 249
SWIDTH 584 0
DWIDTH 9 0
BBX 10 15 0 0
BITMAP
0006A10000
001FFC1000
0008FFC000
00005FF700
000003B500
0000000060
03200002F4
0CD00006F9
0EF4000AFA
1FF4002FF7
3FF101CFE1
3FF24CFF70
1EFFFFF700
0AFFFF9000
03DFB40000
ENDCHAR
STARTCHAR uacute
ENCODING 250
SWIDTH 584 0
DWIDTH 9 0
BBX 10 14 0 0
BITMAP
0000000980
000000BFF2
00000AFF90
00006FF700
00004C4060
03200002F4
0CD00006F9
0EF4000AFA
1FF4002FF7
3FF101CFE1
3FF24CFF70
1EFFFFF700
0AFFFF9000
03DFB40000
ENDCHAR
STARTCHAR ucircumflex
ENCODING 251
SWIDTH 584 0
DWIDTH 9 0
BBX 10 15 0 0
BITMAP
0000033000
00006FF800
0008FEEF90
002FF43EF3
0008400390
0000000060
03200002F4
0CD00006F9
0EF4000AFA
1FF4002FF7
3FF101CFE1
3FF24CFF70
1EFFFFF700
0AFFFF9000
03DFB40000
ENDCHAR
STARTCHAR udieresis
ENCODING 252
SWIDTH 584 0
DWIDTH 9 0
BBX 10 14 0 0
BITMAP
0007800791
002FF60EF9
001CB107B2
0000000000
0000000060
03200002F4
0CD00006F9
0EF4000AFA
1FF4002FF7
3FF101CFE1
3FF24CFF70
1EFFFFF700
0AFFFF9000
03DFB40000
ENDCHAR
STARTCHAR yacute
ENCODING 253
SWIDTH 400 0
DWIDTH 6 0
BBX 9 17 0 -1
BITMAP
0000003C20
000004FF90
00003EFE40
0000DFD200
0000A91000
0000000000
0820018500
1FE01BFF10
0EF39FF800
0CFAFF9000
09FFFC0000
02EFF30000
02EF900000
09FE100000
2FF7000000
3FD0000000
0430000000
ENDCHAR
STARTCHAR thorn
ENCODING 254
SWIDTH 579 0
DWIDTH 9 0
BBX 10 11 0 -1
BITMAP
01A2000000
06F8100000
0BFFFEC820
0DFEDEFFD1
2FF500AFF4
6FF24BFFE2
7FFDFFFA20
8FFFD82000
5FE3000000
1EA0000000
0100000000
ENDCHAR
STARTCHAR ydieresis
ENCODING 255
SWIDTH 400 0
DWIDTH 6 0
BBX 9 15 0 -1
BITMAP
0049204940
00CFC08FE0
009D404B60
0000000000
0820018500
1FE01BFF10
0EF39FF800
0CFAFF9000
09FFFC0000
02EFF30000
02EF900000
09FE100000
2FF7000000
3FD0000000
0430000000
ENDCHAR
STARTCHAR dotlessi
ENCODING 305
SWIDTH 320 0
DWIDTH 5 0
BBX 5 11 0 -1
BITMAP
003500
00DD00
03FF20
06FF20
0AFC00
0DF800
0FF500
1FF300
0EF400
09F300
012000
ENDCHAR
STARTCHAR Lslash
ENCODING 321
SWIDTH 632 0
DWIDTH 10 0
BBX 12 13 -2 -1
BITMAP
000028400000
00007FF50000
0000CFF50000
0002FFD00000
0007FFEC4000
05BFFFFD4000
6FFFFD400000
1CEFF6000000
00BFF2133300
00CFFDFFFFC3
009FFFFFFFFA
002EFFC97784
000021000000
ENDCHAR
STARTCHAR lslash
ENCODING 322
SWIDTH 533 0
DWIDTH 9 0
BBX 11 11 -2 -1
BITMAP
000066100000
0000DF800000
0003FF500000
0009FF600000
017EFFF90000
6FFFFA400000
3EEFC0000000
00CFB5897100
00BFFFFFFE10
004FFFBABA10
000231000000
ENDCHAR
STARTCHAR OE
ENCODING 338
SWIDTH 1212 0
DWIDTH 19 0
BBX 20 13 0 -1
BITMAP
0000004C400000024660
000007FFF3027AEFFFFA
0001AFFFF55FFFFFFFE5
001BFFFFF75FFFEC7410
00CFFEAAFE2EFC333000
08FFD201EF8EFFFFF600
3FFD20006FFFFFFFFB00
8FF400004FFFE9995000
CFC00016EFFF80001300
CFFAACFFFFFFBABCFF60
6FFFFFFFFDFFFFFFFF90
07EFFFD9309FFFEDB600
00012100000021000000
ENDCHAR
STARTCHAR oe
ENCODING 339
SWIDTH 1010 0
DWIDTH 16 0
BBX 17 11 0 -1
BITMAP
000005B10000246600
00008FFC05ADFFFF80
001BFFFC2FFFFFC810
01CFFEEF3EFB510000
0AFF706FABFEDE6000
4FF6000CFFFFFFC000
AFA0000BFFD6640000
CF7237DFFF62358100
AFFFFFFFFFFFFFFA00
1CFFFEA47FFFFEA200
002220000132000000
ENDCHAR
STARTCHAR Scaron
ENCODING 352
SWIDTH 576 0
DWIDTH 9 0
BBX 11 19 0 -1
BITMAP
000030002100
0005F702DB00
0005FF7DFB00
00004EFFA000
000003B70000
000000000000
00000379A700
0039DFFFFF60
2BFFFFFFFFD0
AFFFD7333420
CFFFFA200000
5EFFFFD00000
00246CF80000
000002FE0000
00004DFD0000
068CFFF50000
1FFFFF600000
0EFE92000000
012000000000
ENDCHAR
STARTCHAR scaron
ENCODING 353
SWIDTH 463 0
DWIDTH 7 0
BBX 10 17 0 -1
BITMAP
0021000300
00DC10AF20
01DFB9FE30
001CFFD200
00019A2000
0000000000
0000379930
028DFFFFC0
6FFFEBCBB1
CFFF600000
8FFFFA0000
0146BF5000
00003FA000
0018EF6000
2EFFFA0000
2FFD600000
0330000000
ENDCHAR
STARTCHAR Ydieresis
ENCODING 376
SWIDTH 493 0
DWIDTH 8 0
BBX 10 17 0 -1
BITMAP
0007800791
002FF60EF9
001CB107B2
0000000000
0830000780
1FF500AFF8
0EF908FFF4
0CFC4FFF50
09FFEFF700
05FFFFB000
00CFFF2000
00BFF80000
04FFD00000
0BFF500000
3FFB000000
2FF4000000
0350000000
ENDCHAR
STARTCHAR Zcaron
ENCODING 381
SWIDTH 664 0
DWIDTH 11 0
BBX 13 19 -1 -1
BITMAP
00000021000300
000000DC109F20
000001DFC9FE30
0000001CFFE300
000000019A2000
00000000000000
00036765555100
000AFFFFFFFB00
0006FFFFFFFF10
0000543BFFF800
000001AFFE5000
00005DFFE30000
0009FFFD300000
03DFFF91000000
0DFFE400371000
2FFF76AEFFC000
1FFFFFFFFF7000
08FFFFEB610000
00598400000000
ENDCHAR
STARTCHAR zcaron
ENCODING 382
SWIDTH 547 0
DWIDTH 9 0
BBX 11 17 -1 -1
BITMAP
000003000210
00005F702DB0
00005FF7DFB0
000004EFFA00
0000003B7000
000000000000
000576665200
001FFFFFFE10
0009DBDFFF10
000004EFE400
00018FFD2000
003DFFC20000
06FFF7000000
1EFD316A9100
2FFEDFFFE300
0BFFFFD81000
017961000000
ENDCHAR
STARTCHAR circumflex
ENCODING 710
SWIDTH 754 0
DWIDTH 12 0
BBX 8 5 3 8
BITMAP
00033000
007FF700
08FEEF80
3FE34FF3
08300380
ENDCHAR
STARTCHAR caron
ENCODING 711
SWIDTH 754 0
DWIDTH 12 0
BBX 8 5 3 8
BITMAP
03000030
1EB00BE1
2EFAAFD2
02DFFD20
001AA100
ENDCHAR
STARTCHAR breve
ENCODING 728
SWIDTH 754 0
DWIDTH 12 0
BBX 8 5 3 8
BITMAP
03000030
1EA00AE1
2EFEEFE2
03BFFB30
00011000
ENDCHAR
STARTCHAR dotaccent
ENCODING 729
SWIDTH 754 0
DWIDTH 12 0
BBX 4 3 5 9
BITMAP
1870
4FF4
2DA1
ENDCHAR
STARTCHAR ring
ENCODING 730
SWIDTH 754 0
DWIDTH 12 0
BBX 6 5 4 8
BITMAP
003D50
04EF90
1EDBF2
5FEFF4
1CFC60
ENDCHAR
STARTCHAR ogonek
ENCODING 731
SWIDTH 754 0
DWIDTH 12 0
BBX 7 6 4 -5
BITMAP
06200000
2F400000
2F600000
0DEB9830
03CFFF90
00013300
ENDCHAR
STARTCHAR tilde
ENCODING 732
SWIDTH 754 0
DWIDTH 12 0
BBX 8 4 3 8
BITMAP
07DE72CA
5FFFFEF6
BE39FF90
00001000
ENDCHAR
STARTCHAR hungarumlaut
ENCODING 733
SWIDTH 754 0
DWIDTH 12 0
BBX 10 5 2 7
BITMAP
00089006A0
00AFF38FF5
0AFFA8FFB2
5FF73FF900
3C401C6000
ENDCHAR
STARTCHAR endash
ENCODING 8211
SWIDTH 588 0
DWIDTH 9 0
BBX 9 4 0 2
BITMAP
1255665200
BFFFFFFE40
7FECBBA820
0100000000
ENDCHAR
STARTCHAR emdash
ENCODING 8212
SWIDTH 878 0
DWIDTH 14 0
BBX 14 3 0 3
BITMAP
24577788876300
AFFFFFFFFFFFA1
2CDCA999998740
ENDCHAR
STARTCHAR quoteleft
ENCODING 8216
SWIDTH 203 0
DWIDTH 3 0
BBX 4 6 1 7
BITMAP
0010
08FA
2FFC
6FF3
8FB0
3A50
ENDCHAR
STARTCHAR quoteright
ENCODING 8217
SWIDTH 199 0
DWIDTH 3 0
BBX 4 5 1 7
BITMAP
07E6
0CFC
2FF8
AFE1
5C40
ENDCHAR
STARTCHAR quotesinglbase
ENCODING 8218
SWIDTH 204 0
DWIDTH 3 0
BBX 4 6 -2 -3
BITMAP
0020
06F9
0AFE
1FF9
9FF2
2A40
ENDCHAR
STARTCHAR quotedblleft
ENCODING 8220
SWIDTH 410 0
DWIDTH 7 0
BBX 8 6 1 7
BITMAP
00100100
0AE74FC2
2FF8CFE2
6FF3FF70
8FA3FF10
5E718900
ENDCHAR
STARTCHAR quotedblright
ENCODING 8221
SWIDTH 425 0
DWIDTH 7 0
BBX 8 6 1 7
BITMAP
00000100
07E60BC3
0CFC2FF6
2FF89FE2
AFE5FF70
5C42B800
ENDCHAR
STARTCHAR quotedblbase
ENCODING 8222
SWIDTH 430 0
DWIDTH 7 0
BBX 8 6 -2 -3
BITMAP
00200110
06F90BE6
0AFE2FF8
1FF98FF2
9FF5FF70
2A419700
ENDCHAR
STARTCHAR bullet
ENCODING 8226
SWIDTH 299 0
DWIDTH 5 0
BBX 4 4 0 3
BITMAP
0660
4FF8
6FFB
3ED5
ENDCHAR
STARTCHAR ellipsis
ENCODING 8230
SWIDTH 768 0
DWIDTH 12 0
BBX 12 4 -1 -1
BITMAP
053003410162
4FF51DF909FE
3FF10DF608FB
043002500161
ENDCHAR
STARTCHAR perthousand
ENCODING 8240
SWIDTH 889 0
DWIDTH 14 0
BBX 15 12 0 0
BITMAP
0003100001100000
006F90002D600000
07FFD002DF300000
1FDAF51EF8000000
2FFFF5DF70000000
06974DF600000000
0002DF6210002100
003DF65F8006F800
03EF56FFC06FFC00
0DF51EDAF6FCAF40
4FD03FFFF8FFFF30
3E6008A8308A8300
ENDCHAR
STARTCHAR guilsinglleft
ENCODING 8249
SWIDTH 322 0
DWIDTH 5 0
BBX 6 8 -1 -1
BITMAP
000086
0009F9
04CFC1
1FF910
0EF700
03EF70
002BD0
000030
ENDCHAR
STARTCHAR guilsinglright
ENCODING 8250
SWIDTH 341 0
DWIDTH 5 0
BBX 6 8 -1 -1
BITMAP
077000
05FC20
00AFD1
001DF7
02DFD4
2EF900
4F6000
030000
ENDCHAR
STARTCHAR fraction
ENCODING 8260
SWIDTH 541 0
DWIDTH 9 0
BBX 9 13 0 -1
BITMAP
0000000640
0000006F70
000003FF50
00001DFA00
0000AFC000
0007FD1000
004FF30000
03EF500000
1EF8000000
8FB0000000
CF60000000
AF30000000
1200000000
ENDCHAR
STARTCHAR Euro
ENCODING 8364
SWIDTH 565 0
DWIDTH 9 0
BBX 10 10 -1 0
BITMAP
0000000660
000005DFF6
0001BFFFF4
001CFFE710
008FFC3000
3EFFFFFE30
1EFFDCB930
018FC97640
001CFFFFF2
00016ACC80
ENDCHAR
STARTCHAR Delta
ENCODING 8710
SWIDTH 403 0
DWIDTH 6 0
BBX 10 11 -1 -1
BITMAP
0025789860
009FFFFFF6
004CCFC640
00009F7000
0000DF3000
0003FD0000
0009F90000
001EF50000
6DEFFF9000
5FFDCA6000
0310000000
ENDCHAR
STARTCHAR minus
ENCODING 8722
SWIDTH 548 0
DWIDTH 9 0
BBX 10 4 -1 2
BITMAP
0135666410
1FFFFFFFC1
0CFDBBB970
0010000000
ENDCHAR
STARTCHAR approxequal
ENCODING 8776
SWIDTH 323 0
DWIDTH 5 0
BBX 5 13 0 -1
BITMAP
002600
00DE10
03FF60
07FF80
0AFF50
0EFE00
2FFB00
4FF800
5FF600
5FF600
1FF700
0BF400
011000
ENDCHAR
STARTCHAR fi
ENCODING 64257
SWIDTH 810 0
DWIDTH 13 0
BBX 13 11 -1 -1
BITMAP
00000369A50430
0049DFFFFF5FB0
04FFFEA7546FE0
01CFF200008FE0
004FC00100CF90
2DEFFDFE11FF50
3FFFFFFB02FF20
09FC520003FF10
0BF4000001FF20
08F2000000BF10
00200000001100
ENDCHAR
STARTCHAR fl
ENCODING 64258
SWIDTH 1012 0
DWIDTH 16 0
BBX 17 11 -1 -1
BITMAP
00000369A508400000
0049DFFFFF8FF30000
04FFFEA7549FE10000
01CFF20000DF900000
004FC00104FF300000
2DEFFDFE19FD000000
3FFFFFFB0EF8000000
09FC52002FF7689600
0BF400001FFFFFFFB0
08F2000009FFEBAB80
002000000032000000
ENDCHAR
STARTCHAR .notdef
ENCODING -1
SWIDTH 370 0
DWIDTH 6 0
BBX 1 1 0 0
BITMAP
00
ENDCHAR
ENDFONT
